<svg width="1920" height="1080" viewBox="0 0 1920 1080" xmlns="http://www.w3.org/2000/svg"><rect width="1920" height="1080" fill="#818cf8"/><path d="M 0,1080 C 0,1080 0,180 0,180 C 111.14832535885165,175.02392344497605 222.2966507177033,170.04784688995213 329,168 C 435.7033492822967,165.95215311004787 537.9617224880384,166.8325358851675 664,176 C 790.0382775119616,185.1674641148325 939.8564593301435,202.622009569378 1104,194 C 1268.1435406698565,185.377990430622 1446.6124401913876,150.67942583732057 1585,144 C 1723.3875598086124,137.32057416267943 1821.6937799043062,158.66028708133973 1920,180 C 1920,180 1920,1080 1920,1080 Z" fill="#4f46e5" opacity="0.09999999999999999"/><path d="M 0,1080 C 0,1080 0,360 0,360 C 85.10047846889955,366.92822966507174 170.2009569377991,373.85645933014354 271,366 C 371.7990430622009,358.14354066985646 488.2966507177032,335.5023923444976 644,329 C 799.7033492822968,322.4976076555024 994.6124401913878,332.13397129186603 1181,345 C 1367.3875598086122,357.86602870813397 1545.2535885167463,373.96172248803833 1667,377 C 1788.7464114832537,380.03827751196167 1854.3732057416269,370.01913875598086 1920,360 C 1920,360 1920,1080 1920,1080 Z" fill="#4f46e5" opacity="0.19999999999999998"/><path d="M 0,1080 C 0,1080 0,540 0,540 C 91.98086124401917,530.2488038277512 183.96172248803833,520.4976076555024 319,509 C 454.03827751196167,497.50239234449765 632.1339712918659,484.2583732057417 758,480 C 883.8660287081341,475.7416267942583 957.5023923444976,480.4688995215311 1080,479 C 1202.4976076555024,477.5311004784689 1373.8564593301435,469.866028708134 1522,479 C 1670.1435406698565,488.133971291866 1795.0717703349283,514.066985645933 1920,540 C 1920,540 1920,1080 1920,1080 Z" fill="#4f46e5" opacity="0.3"/><path d="M 0,1080 C 0,1080 0,720 0,720 C 193.8277511961723,692.2105263157895 387.6555023923446,664.421052631579 484,655 C 580.3444976076554,645.578947368421 579.2057416267941,654.5263157894738 720,678 C 860.7942583732059,701.4736842105262 1143.5215311004783,739.4736842105264 1257,738 C 1370.4784688995217,736.5263157894736 1314.708133971292,695.578947368421 1397,686 C 1479.291866028708,676.421052631579 1699.645933014354,698.2105263157895 1920,720 C 1920,720 1920,1080 1920,1080 Z" fill="#4f46e5" opacity="0.39999999999999997"/><path d="M 0,1080 C 0,1080 0,900 0,900 C 145.06220095693783,873.0622009569379 290.12440191387566,846.1244019138757 391,863 C 491.87559808612434,879.8755980861243 548.5645933014353,940.5645933014354 700,958 C 851.4354066985647,975.4354066985646 1097.617224880383,949.6172248803828 1251,933 C 1404.382775119617,916.3827751196172 1464.9665071770335,908.9665071770335 1561,905 C 1657.0334928229665,901.0334928229665 1788.5167464114834,900.5167464114833 1920,900 C 1920,900 1920,1080 1920,1080 Z" fill="#4f46e5" opacity="0.49999999999999994"/></svg>