<?xml version="1.0" standalone="no"?><svg xmlns="http://www.w3.org/2000/svg" viewBox="0 0 1440 320"><path fill="#0099ff" fill-opacity="1" d="M0,64L34.3,69.3C68.6,75,137,85,206,106.7C274.3,128,343,160,411,160C480,160,549,128,617,106.7C685.7,85,754,75,823,85.3C891.4,96,960,128,1029,122.7C1097.1,117,1166,75,1234,80C1302.9,85,1371,139,1406,165.3L1440,192L1440,320L1405.7,320C1371.4,320,1303,320,1234,320C1165.7,320,1097,320,1029,320C960,320,891,320,823,320C754.3,320,686,320,617,320C548.6,320,480,320,411,320C342.9,320,274,320,206,320C137.1,320,69,320,34,320L0,320Z"></path></svg>