<svg id="visual" viewBox="0 0 1920 256" width="1920" height="256" xmlns="http://www.w3.org/2000/svg" xmlns:xlink="http://www.w3.org/1999/xlink" version="1.1"><path d="M0 114L12.3 112.5C24.7 111 49.3 108 74 120.3C98.7 132.7 123.3 160.3 148 171.8C172.7 183.3 197.3 178.7 221.8 166.2C246.3 153.7 270.7 133.3 295.2 147C319.7 160.7 344.3 208.3 369 232.3C393.7 256.3 418.3 256.7 443 249.7C467.7 242.7 492.3 228.3 517 220C541.7 211.7 566.3 209.3 591 191.5C615.7 173.7 640.3 140.3 664.8 152.2C689.3 164 713.7 221 738.2 235.8C762.7 250.7 787.3 223.3 812 208.5C836.7 193.7 861.3 191.3 886 196C910.7 200.7 935.3 212.3 960 209C984.7 205.7 1009.3 187.3 1034 179.8C1058.7 172.3 1083.3 175.7 1108 179.7C1132.7 183.7 1157.3 188.3 1181.8 202.7C1206.3 217 1230.7 241 1255.2 255.5C1279.7 270 1304.3 275 1329 263.3C1353.7 251.7 1378.3 223.3 1403 216.3C1427.7 209.3 1452.3 223.7 1477 229.2C1501.7 234.7 1526.3 231.3 1551 207.8C1575.7 184.3 1600.3 140.7 1624.8 122.8C1649.3 105 1673.7 113 1698.2 131.5C1722.7 150 1747.3 179 1772 194.2C1796.7 209.3 1821.3 210.7 1846 224.8C1870.7 239 1895.3 266 1907.7 279.5L1920 293L1920 321L1907.7 321C1895.3 321 1870.7 321 1846 321C1821.3 321 1796.7 321 1772 321C1747.3 321 1722.7 321 1698.2 321C1673.7 321 1649.3 321 1624.8 321C1600.3 321 1575.7 321 1551 321C1526.3 321 1501.7 321 1477 321C1452.3 321 1427.7 321 1403 321C1378.3 321 1353.7 321 1329 321C1304.3 321 1279.7 321 1255.2 321C1230.7 321 1206.3 321 1181.8 321C1157.3 321 1132.7 321 1108 321C1083.3 321 1058.7 321 1034 321C1009.3 321 984.7 321 960 321C935.3 321 910.7 321 886 321C861.3 321 836.7 321 812 321C787.3 321 762.7 321 738.2 321C713.7 321 689.3 321 664.8 321C640.3 321 615.7 321 591 321C566.3 321 541.7 321 517 321C492.3 321 467.7 321 443 321C418.3 321 393.7 321 369 321C344.3 321 319.7 321 295.2 321C270.7 321 246.3 321 221.8 321C197.3 321 172.7 321 148 321C123.3 321 98.7 321 74 321C49.3 321 24.7 321 12.3 321L0 321Z" fill="#ffffff" stroke-linecap="round" stroke-linejoin="miter"></path></svg>